<?xml version="1.0" standalone="no"?>
<!DOCTYPE svg PUBLIC "-//W3C//DTD SVG 20010904//EN"
 "http://www.w3.org/TR/2001/REC-SVG-20010904/DTD/svg10.dtd">
<svg version="1.0" xmlns="http://www.w3.org/2000/svg"
 width="800.000000pt" height="800.000000pt" viewBox="0 0 800.000000 800.000000"
 preserveAspectRatio="xMidYMid meet">
<metadata>
Created by potrace 1.11, written by Peter Selinger 2001-2013
</metadata>
<g transform="translate(0.000000,800.000000) scale(0.100000,-0.100000)"
fill="#000000" stroke="none">
<path d="M3848 6165 c-2 -2 -128 -14 -161 -15 -5 0 -6 -21 -3 -47 14 -127 22
-223 25 -294 l1 -37 43 4 c23 1 50 3 60 3 17 1 18 8 12 86 -6 72 -5 85 8 85
18 0 23 -12 26 -66 1 -22 4 -49 6 -60 2 -10 4 -24 4 -29 1 -7 21 -9 54 -5 l52
5 -3 57 c-5 98 -17 128 -51 128 -12 0 -11 4 7 18 32 25 34 95 5 131 -16 18
-76 44 -85 36z m-7 -91 c5 -48 1 -64 -13 -61 -13 2 -27 53 -20 74 5 15 32 5
33 -13z"/>
<path d="M4069 6152 c-1 -9 -3 -26 -4 -37 -1 -11 -6 -78 -10 -148 -4 -71 -8
-140 -10 -153 -2 -18 3 -24 19 -25 11 0 30 -2 40 -4 11 -2 46 -5 80 -6 57 -3
60 -1 67 23 9 36 -2 49 -44 51 -37 2 -37 2 -37 45 l0 44 38 -4 c36 -3 37 -2
40 35 3 36 3 37 -32 37 -35 0 -36 1 -36 38 l0 38 39 -4 c38 -4 39 -3 43 32 2
20 2 37 -2 37 -10 3 -46 6 -117 12 -64 5 -73 4 -74 -11z"/>
<path d="M3400 6091 l-65 -17 1 -44 c0 -39 11 -160 19 -225 1 -11 3 -36 4 -55
2 -58 9 -62 73 -44 l55 16 -7 33 c-7 30 -5 34 17 38 20 4 25 0 30 -24 3 -16
12 -29 20 -29 27 0 103 22 103 30 0 5 -31 75 -68 157 -38 81 -72 156 -75 166
-8 21 -23 21 -107 -2z m69 -161 c26 -67 26 -66 2 -73 -14 -3 -19 0 -19 12 1 9
-2 40 -6 70 -7 65 -4 64 23 -9z"/>
<path d="M4620 5973 c-18 -60 -43 -140 -56 -179 l-22 -71 53 -17 c28 -9 56
-16 62 -16 15 0 24 42 12 56 -13 16 62 249 82 249 8 0 15 12 17 27 3 25 -1 28
-49 42 -29 9 -56 16 -59 16 -4 0 -22 -48 -40 -107z"/>
<path d="M4871 5953 c-27 -18 -111 -191 -118 -240 -6 -43 24 -85 80 -112 97
-47 147 -32 194 57 11 21 9 24 -44 47 -31 14 -57 24 -57 23 -1 -2 -9 -20 -19
-40 -9 -21 -21 -38 -27 -38 -24 0 -20 33 13 102 19 40 37 83 41 94 9 31 39 55
55 45 10 -7 9 -17 -8 -49 -12 -23 -21 -45 -21 -49 0 -7 89 -53 103 -53 10 0
37 81 37 111 0 80 -160 151 -229 102z"/>
<path d="M2842 5856 c-95 -56 -100 -61 -79 -84 9 -10 17 -22 17 -25 0 -4 15
-30 34 -59 18 -29 44 -73 58 -98 13 -25 34 -62 47 -82 l22 -36 82 48 c45 27
83 54 84 62 2 7 -5 23 -15 36 l-18 24 -36 -22 -36 -21 -20 35 -21 35 29 18
c34 20 36 25 14 58 l-15 24 -32 -19 -32 -19 -17 29 c-17 29 -16 30 13 50 33
24 35 36 11 67 l-17 22 -73 -43z"/>
<path d="M5212 5774 c-26 -18 -52 -65 -52 -93 0 -11 14 -49 31 -86 29 -63 30
-68 14 -91 -15 -23 -35 -31 -48 -17 -4 3 2 21 13 38 l20 33 -32 24 c-18 13
-39 28 -45 32 -17 10 -53 -51 -53 -90 0 -54 101 -134 169 -134 20 0 38 10 59
34 47 53 49 84 12 165 -35 75 -34 111 2 111 20 0 21 -7 5 -50 -4 -10 8 -24 36
-42 l42 -27 17 22 c40 50 14 108 -72 162 -45 29 -86 32 -118 9z"/>
<path d="M2597 5697 c-20 -18 -37 -37 -37 -43 0 -6 27 -50 60 -98 33 -48 56
-86 51 -84 -5 2 -44 36 -86 77 l-77 73 -41 -38 c-23 -22 -43 -40 -45 -41 -4
-2 48 -94 58 -103 3 -3 20 -27 39 -55 l34 -50 -34 31 c-19 17 -58 54 -88 82
l-55 50 -44 -36 -44 -36 63 -56 c89 -79 223 -190 229 -190 3 0 29 22 58 48
l52 47 -49 75 c-49 74 -58 98 -25 65 10 -9 41 -35 71 -57 l54 -41 22 20 c12
11 37 33 55 49 l32 29 -95 145 c-53 80 -102 151 -109 158 -10 10 -19 6 -49
-21z"/>
<path d="M3957 5694 c-1 -1 -40 -5 -87 -8 -47 -4 -94 -9 -105 -11 -11 -3 -36
-7 -55 -9 -229 -32 -535 -161 -759 -320 -147 -104 -314 -269 -401 -395 -14
-20 -29 -38 -35 -40 -10 -5 274 -79 335 -87 33 -5 41 0 123 81 169 164 343
274 556 350 52 18 156 50 156 47 0 -1 18 3 40 9 22 5 61 12 88 15 l47 5 0
-330 0 -330 32 -15 c46 -24 56 -20 69 24 7 22 18 45 25 51 17 14 80 23 87 12
3 -4 -10 -8 -29 -9 -35 -1 -62 -19 -69 -45 -15 -64 -34 -73 -93 -44 -27 14
-33 14 -67 -2 -27 -13 -40 -14 -53 -7 -12 8 -29 7 -62 -3 -38 -12 -60 -11
-110 2 -6 2 -70 15 -90 19 -8 2 -26 6 -40 9 -14 4 -36 9 -50 12 -14 2 -43 9
-65 14 -22 5 -53 12 -70 14 -16 3 -55 12 -86 21 -31 9 -66 19 -78 21 -13 2
-30 6 -39 9 -9 3 -28 7 -42 10 -14 3 -49 12 -77 20 -29 8 -53 12 -53 9 0 -3
-6 -1 -12 5 -7 5 -29 13 -48 16 -19 3 -53 11 -75 16 -22 6 -49 13 -61 15 -11
3 -72 18 -135 35 -63 16 -115 30 -116 30 -2 0 -4 0 -5 1 -2 0 -10 2 -18 4 -8
2 -62 15 -120 30 -152 38 -176 44 -207 51 -12 2 -33 8 -46 13 -13 5 -62 8
-108 6 -46 -1 -110 -3 -141 -4 -72 -1 -75 -16 -5 -26 67 -9 143 -23 167 -30
17 -5 106 -19 113 -17 4 1 7 -2 7 -8 0 -5 7 -7 15 -4 8 3 20 2 27 -2 7 -5 20
-9 28 -11 8 -1 31 -5 50 -9 19 -4 39 -6 44 -5 4 1 14 -3 20 -9 7 -5 16 -7 19
-4 3 3 12 2 19 -2 7 -4 22 -9 33 -11 58 -9 70 -11 70 -13 0 -1 16 -4 35 -7 19
-2 40 -9 45 -15 7 -8 5 -9 -7 -5 -17 6 -51 -38 -98 -131 -25 -48 -23 -55 16
-54 17 0 22 -3 13 -9 -7 -4 -17 -5 -22 -2 -5 3 -84 7 -176 9 -166 3 -288 8
-476 19 -55 4 -172 8 -260 11 -88 2 -216 6 -285 8 -375 13 -498 17 -620 22
-241 9 -330 10 -330 2 0 -4 15 -8 33 -9 17 0 43 -2 57 -4 14 -2 66 -5 115 -6
50 -1 96 -7 102 -12 9 -6 13 -5 13 2 0 7 4 10 8 7 15 -9 241 -20 627 -31 110
-3 238 -7 285 -10 47 -3 137 -7 200 -10 63 -3 147 -7 185 -10 39 -2 122 -7
185 -10 63 -4 140 -8 170 -10 30 -2 120 -6 200 -10 80 -4 147 -10 150 -12 3
-3 -51 -4 -120 -2 -124 4 -124 4 -136 -21 -21 -42 -42 -93 -52 -130 -43 -146
-53 -188 -66 -262 -34 -197 -39 -446 -11 -588 3 -14 8 -45 11 -70 3 -25 9 -49
11 -54 3 -4 7 -20 8 -35 3 -32 39 -152 73 -241 51 -135 172 -355 245 -446 73
-92 141 -168 192 -218 447 -434 1070 -617 1670 -490 103 22 105 22 144 35 360
112 645 297 894 579 107 123 240 344 311 519 25 62 84 255 91 296 1 11 8 50
14 87 24 145 30 297 16 458 -10 120 -10 117 -18 150 -3 14 -10 52 -17 85 -14
75 -52 197 -91 297 l-31 77 -61 -5 c-34 -3 -77 -7 -94 -8 -18 -2 -33 1 -33 5
0 5 30 10 68 11 37 0 90 2 117 4 74 4 279 15 370 19 107 6 225 13 310 20 64 5
176 12 330 20 208 12 290 16 370 20 50 3 135 7 190 9 55 3 145 8 200 10 112 6
173 14 195 27 12 7 11 9 -5 10 -38 3 -60 2 -382 -16 -37 -2 -120 -7 -183 -10
-63 -3 -144 -8 -180 -10 -36 -2 -117 -7 -180 -9 -63 -3 -146 -8 -185 -11 -38
-3 -122 -8 -185 -11 -63 -3 -144 -7 -180 -9 -189 -10 -312 -17 -370 -20 -55
-2 -138 -7 -297 -19 -18 -1 -33 1 -33 5 0 4 28 8 63 9 104 2 122 6 119 21 -9
36 -36 79 -51 79 -28 1 8 16 54 24 22 3 52 8 68 11 15 3 37 7 50 9 12 2 33 7
47 10 23 5 59 12 105 20 115 21 116 21 140 29 11 3 32 9 48 12 15 3 39 7 55
10 15 3 35 8 44 11 9 3 27 7 40 9 13 3 34 7 48 10 14 3 36 8 50 11 14 3 36 7
50 10 14 3 34 8 45 11 26 9 32 10 78 18 21 3 55 13 75 20 l37 14 -35 1 c-19 1
-44 3 -55 6 -32 6 -122 7 -131 1 -5 -3 -25 -8 -44 -11 -19 -3 -80 -15 -135
-26 -55 -12 -111 -23 -125 -26 -59 -10 -75 -13 -75 -14 0 -2 -20 -6 -65 -14
-19 -4 -42 -9 -50 -11 -16 -4 -59 -13 -100 -20 -14 -2 -36 -7 -50 -10 -14 -3
-41 -8 -60 -11 -19 -4 -44 -9 -55 -11 -11 -3 -31 -6 -45 -8 -14 -2 -26 -4 -27
-5 -4 -3 -11 -5 -63 -14 -25 -5 -54 -10 -65 -12 -76 -14 -80 -14 -59 -5 12 5
38 12 59 15 46 8 87 17 98 23 4 3 -14 35 -39 71 -197 280 -489 513 -809 647
-41 17 -204 72 -240 80 -91 22 -201 41 -290 50 -53 6 -244 12 -248 9z m363
-379 c42 -7 173 -43 209 -57 14 -6 35 -14 46 -18 11 -4 63 -28 116 -54 173
-84 322 -196 455 -342 42 -46 80 -82 84 -79 6 4 24 7 103 20 17 3 40 8 50 11
9 3 17 1 17 -4 0 -5 -6 -9 -12 -10 -59 -6 -168 -25 -206 -36 -9 -3 -35 -8 -57
-11 -22 -4 -49 -9 -60 -11 -11 -2 -38 -6 -60 -9 -22 -3 -60 -10 -85 -16 -25
-5 -58 -11 -75 -13 -16 -3 -46 -8 -65 -11 -19 -4 -48 -9 -65 -10 -16 -2 -30
-4 -30 -5 0 -3 -40 -10 -80 -14 -22 -3 -41 -6 -42 -7 -2 -1 -11 -2 -20 -3 -10
-1 -22 -4 -28 -7 -5 -4 -20 -5 -32 -4 -13 1 -23 -1 -23 -5 0 -3 -15 -4 -32 -2
-18 2 -44 4 -56 5 -24 2 -24 3 -18 102 3 55 8 118 11 140 3 22 7 65 9 95 3 30
7 85 11 123 3 37 4 67 1 67 -9 0 -35 -56 -41 -87 -2 -17 -7 -68 -10 -114 -3
-46 -8 -111 -11 -144 -3 -33 -7 -85 -8 -115 -5 -73 -5 -74 -12 -67 -4 3 -20
-1 -36 -9 -17 -9 -27 -11 -24 -6 3 6 3 17 0 26 -6 14 -11 13 -40 -9 -33 -25
-50 -32 -40 -17 3 5 -4 16 -15 25 -21 19 -25 37 -7 37 6 0 9 -3 5 -6 -3 -3 2
-14 11 -24 34 -41 37 -11 37 337 -1 186 1 342 3 346 4 8 35 6 122 -8z m-1790
-485 c0 -5 -4 -10 -10 -10 -5 0 -10 5 -10 10 0 6 5 10 10 10 6 0 10 -4 10 -10z
m110 -16 c41 -7 50 -11 50 -26 0 -7 -6 -6 -15 2 -8 7 -15 9 -15 6 0 -4 -6 -4
-12 1 -7 4 -22 9 -33 11 -11 2 -27 5 -35 7 -8 2 -21 4 -27 4 -7 1 -13 5 -13
10 0 6 13 6 33 0 17 -5 48 -12 67 -15z m213 -49 c10 -2 26 -6 35 -9 9 -3 31
-8 47 -11 17 -3 44 -8 60 -11 17 -4 39 -8 50 -9 11 -2 22 -4 25 -6 3 -1 10 -3
15 -4 6 0 33 -7 61 -14 29 -7 58 -14 65 -15 8 -2 30 -6 49 -10 19 -4 44 -9 55
-11 11 -2 20 -4 20 -5 0 -3 39 -9 68 -12 15 -1 27 -5 27 -8 0 -4 6 -7 13 -7
31 -1 156 -28 164 -36 2 -3 -49 -3 -114 0 -65 2 -171 5 -235 6 -65 1 -118 4
-118 7 0 3 -55 5 -123 4 -67 0 -130 4 -139 8 -10 5 -19 4 -23 -2 -4 -6 -11 -8
-16 -5 -5 4 -27 7 -49 7 -22 0 -40 2 -40 5 0 2 20 33 45 68 l45 63 -37 7 c-21
4 -49 9 -62 11 -13 1 -28 7 -33 12 -6 6 21 3 59 -5 37 -8 76 -16 86 -18z
m2756 -19 c-4 -4 -21 -8 -99 -22 -14 -2 -34 -5 -45 -7 -11 -1 -24 -6 -28 -12
-5 -6 -7 -4 -5 4 2 8 11 15 19 16 35 6 87 16 119 23 33 8 49 7 39 -2z m-1474
-37 c4 -11 4 -23 1 -26 -3 -4 -6 0 -6 8 0 8 -9 21 -20 29 -26 18 -26 34 -1 20
11 -5 23 -19 26 -31z m1285 3 c0 -4 -9 -8 -20 -9 -11 -1 -20 2 -20 5 0 4 9 8
20 9 11 1 20 -2 20 -5z m-50 -12 c0 -5 -4 -10 -10 -10 -5 0 -10 5 -10 10 0 6
5 10 10 10 6 0 10 -4 10 -10z m-36 -11 c-3 -5 -11 -9 -17 -8 -32 4 -38 -1 -27
-22 10 -18 19 -20 71 -17 32 1 59 0 59 -4 0 -5 -26 -9 -57 -10 -59 -1 -73 -2
-243 -12 -278 -16 -297 -15 -160 10 19 3 40 7 45 9 14 3 77 16 95 19 28 5 95
19 115 23 11 2 33 6 48 8 15 1 30 4 32 7 9 8 45 6 39 -3z m-2864 -47 c0 -5 -7
-9 -15 -9 -8 0 -15 4 -15 9 0 4 7 8 15 8 8 0 15 -4 15 -8z m45 -2 c3 -5 1 -10
-4 -10 -6 0 -11 5 -11 10 0 6 2 10 4 10 3 0 8 -4 11 -10z m35 0 c0 -5 -5 -10
-11 -10 -5 0 -7 5 -4 10 3 6 8 10 11 10 2 0 4 -4 4 -10z m50 0 c0 -5 -8 -10
-17 -10 -15 0 -16 2 -3 10 19 12 20 12 20 0z m2870 -1 c0 -4 -9 -7 -19 -6 -11
0 -18 4 -16 7 6 9 35 8 35 -1z m-2733 -13 c3 -3 -23 -3 -58 1 -35 3 -66 8 -69
10 -3 3 23 3 58 0 35 -2 66 -7 69 -11z m1158 -2 c19 -15 17 -15 -30 -11 -27 3
-52 6 -55 7 -3 0 2 5 10 10 22 14 52 12 75 -6z m55 -14 c0 -5 -4 -10 -10 -10
-5 0 -10 5 -10 10 0 6 5 10 10 10 6 0 10 -4 10 -10z m1564 -11 c-2 -3 -34 -7
-71 -8 -110 -3 -108 2 -58 -104 63 -134 100 -252 131 -417 10 -56 14 -360 4
-420 -4 -30 -11 -75 -15 -99 -3 -23 -10 -54 -15 -67 -5 -13 -8 -24 -6 -24 3 0
-4 -23 -15 -52 -14 -39 -16 -55 -7 -65 6 -7 13 -11 16 -9 2 3 13 1 24 -5 14
-8 19 -19 17 -42 -2 -18 0 -38 4 -44 5 -7 2 -23 -5 -35 -15 -28 -17 -39 -19
-105 -1 -29 -5 -53 -8 -53 -12 0 1 135 14 156 8 12 11 25 7 29 -4 4 -7 23 -7
42 0 33 -3 37 -45 53 -25 9 -54 20 -65 25 -11 4 -24 9 -30 11 -5 1 -41 14 -80
29 -104 41 -215 81 -355 131 -141 50 -143 50 -225 90 -33 15 -69 28 -80 27
-11 -1 -50 12 -87 28 -37 16 -80 32 -96 35 l-30 6 0 155 c0 85 -3 157 -6 161
-3 3 4 13 16 21 49 34 23 67 -49 62 -21 -1 -34 3 -34 11 -10 94 0 122 37 108
35 -14 37 -13 31 10 -3 11 1 27 10 35 8 8 10 15 5 15 -5 0 -12 11 -14 25 -3
14 -1 25 3 25 5 0 9 5 9 11 0 7 -10 9 -25 7 -53 -11 -80 88 -40 148 13 20 21
23 46 19 17 -3 37 -1 44 5 7 6 30 10 52 9 21 -1 59 2 84 5 26 4 78 9 115 11
141 8 350 18 396 19 27 1 48 3 48 6 0 3 42 6 93 8 50 2 126 6 167 11 87 8 120
8 114 0z m-2874 -21 c0 -4 -11 -7 -25 -6 -33 3 -33 16 0 14 14 0 25 -4 25 -8z
m197 -4 c92 -3 206 -7 253 -9 47 -2 85 -4 85 -4 0 -1 43 -4 95 -6 52 -2 149
-7 215 -9 131 -6 175 -13 175 -27 0 -5 10 -5 24 1 13 5 26 7 28 5 8 -8 75 -19
116 -19 l42 0 -2 -57 c-2 -36 3 -63 11 -73 12 -14 12 -16 -3 -10 -13 5 -16 -1
-16 -30 0 -26 4 -36 15 -36 16 0 39 46 30 60 -3 5 4 8 15 7 24 -2 25 -10 5
-27 -8 -7 -15 -18 -15 -26 0 -7 -16 -21 -35 -30 -19 -9 -35 -21 -35 -28 0 -6
-15 -25 -32 -41 -18 -17 -38 -42 -45 -57 -10 -22 -19 -27 -55 -30 l-43 -3 -5
-136 c-3 -94 -9 -141 -19 -152 -8 -10 -12 -31 -9 -52 3 -30 1 -35 -17 -36 -20
-1 -34 -4 -47 -9 -5 -1 -12 -4 -18 -5 -5 -1 -12 -4 -15 -5 -8 -4 -17 -6 -70
-15 -27 -5 -52 -9 -55 -10 -34 -7 -79 -18 -95 -22 -16 -4 -18 -3 -7 8 28 29 9
29 -45 -1 -31 -18 -66 -34 -77 -35 -12 -2 -32 -6 -46 -9 -14 -4 -39 -8 -55
-10 -17 -3 -42 -7 -55 -10 -27 -6 -66 -13 -120 -22 -19 -3 -44 -8 -55 -11 -11
-3 -29 -7 -40 -8 -19 -3 -100 -18 -155 -30 -14 -2 -50 -10 -80 -16 -117 -23
-123 -26 -116 -60 3 -15 1 -31 -4 -34 -11 -7 -14 44 -4 69 3 9 11 16 18 16 24
0 86 21 82 28 -20 32 -29 411 -12 512 21 129 69 282 127 408 22 46 39 86 39
88 0 2 -13 4 -30 4 -16 0 -30 5 -30 11 0 5 4 8 9 5 5 -4 85 -9 178 -12z m1286
-93 c7 -26 -13 -51 -35 -42 -15 5 -15 8 -1 26 13 16 15 17 10 3 -4 -10 -2 -18
3 -18 6 0 10 9 10 20 0 11 -5 20 -11 20 -5 0 -7 5 -4 10 9 14 21 5 28 -19z
m182 -32 c0 -47 -5 -63 -23 -81 -33 -34 -57 -15 -56 43 3 103 0 96 42 96 l37
0 0 -58z m-362 31 c-12 -12 -38 -16 -41 -7 -6 19 0 24 24 19 14 -2 22 -8 17
-12z m220 -23 c-3 -24 0 -37 13 -47 16 -14 17 -12 12 33 -3 26 -2 47 3 47 5 0
9 -22 9 -50 0 -54 -1 -55 -31 -40 -14 8 -19 21 -19 50 0 22 4 40 9 40 6 0 7
-15 4 -33z m-209 -12 c4 -11 -2 -15 -22 -15 -26 1 -26 1 -8 15 24 18 23 18 30
0z m436 -122 c0 -13 -3 -22 -7 -20 -5 2 -16 7 -27 11 -14 5 -16 9 -7 19 18 22
41 16 41 -10z m0 -63 c0 -5 -12 -10 -26 -10 -14 0 -23 4 -19 10 3 6 15 10 26
10 10 0 19 -4 19 -10z m-124 -12 c4 -6 8 -22 10 -36 2 -22 1 -23 -12 -10 -17
17 -27 58 -14 58 5 0 12 -5 16 -12z m-652 -769 c3 -3 -22 -6 -56 -6 -66 0
-188 -12 -200 -20 -5 -2 -8 1 -8 6 0 6 12 11 28 12 26 0 115 10 119 13 5 4
112 0 117 -5z m-274 -15 c0 -3 -17 -21 -37 -39 -26 -24 -38 -43 -38 -62 0 -23
-5 -28 -25 -29 -41 -2 -45 -3 -66 -21 -10 -10 -55 -49 -99 -88 -44 -38 -82
-72 -85 -75 -3 -3 -39 -35 -80 -70 -41 -36 -82 -73 -91 -82 -15 -17 -17 -17
-31 0 -37 44 -113 186 -153 286 -31 76 -35 81 -65 84 -19 2 -36 -2 -41 -9 -4
-8 -10 -11 -13 -8 -15 15 19 28 89 34 44 4 87 8 95 10 20 4 137 17 178 20 32
2 32 2 26 -34 -4 -20 -7 -42 -7 -48 0 -7 -6 -13 -14 -13 -9 0 -12 8 -9 23 5
27 -2 41 -25 49 -23 9 -39 -25 -41 -83 -1 -70 -1 -70 142 -73 l64 -1 12 41 c7
23 17 51 23 63 10 17 8 23 -13 36 -29 19 -66 12 -67 -13 -1 -9 0 -32 1 -51 1
-24 -2 -32 -12 -29 -7 3 -12 14 -10 24 1 10 4 41 5 68 1 35 6 50 17 51 8 1 47
5 86 9 39 4 81 8 93 11 17 3 21 -1 21 -24 0 -20 -6 -30 -20 -34 -11 -3 -20
-12 -20 -20 0 -12 11 -15 50 -13 29 2 51 -2 53 -8 3 -7 9 -7 18 2 12 11 10 16
-8 32 -13 10 -23 29 -23 44 0 14 1 26 3 27 1 0 22 3 47 6 25 3 47 7 49 9 6 6
21 5 21 -2z m277 -36 c-3 -7 -5 -2 -5 12 0 14 2 19 5 13 2 -7 2 -19 0 -25z
m814 2 c-7 -4 -15 -32 -18 -62 -5 -47 -3 -57 11 -61 14 -4 13 -5 -1 -3 -15 1
-18 11 -17 58 1 66 9 92 25 82 8 -5 8 -8 0 -14z m159 -25 c68 -19 129 -35 136
-35 6 0 17 -7 24 -15 11 -13 7 -13 -31 0 -65 22 -182 55 -215 61 -29 5 -66 23
-48 24 5 0 66 -16 134 -35z m-2125 -22 c0 -23 -4 -39 -8 -36 -5 3 -7 18 -4 33
3 15 1 33 -6 40 -9 10 -9 12 3 8 10 -3 15 -18 15 -45z m1155 20 c0 -15 -17
-34 -31 -37 -8 -1 -23 -7 -34 -14 l-20 -12 20 -15 c11 -9 28 -21 37 -28 9 -7
18 -23 20 -37 3 -22 -2 -25 -57 -38 -33 -7 -62 -16 -65 -20 -3 -4 -17 -13 -31
-20 -40 -21 -79 -89 -79 -139 0 -36 4 -44 27 -57 26 -13 29 -12 50 13 13 14
23 31 23 38 0 30 95 113 130 113 19 0 10 -20 -14 -31 -13 -6 -28 -21 -34 -33
-11 -22 -28 -46 -76 -103 -17 -19 -30 -43 -31 -53 -1 -9 -13 -30 -28 -46 -15
-16 -27 -36 -28 -44 0 -11 -35 75 -39 97 0 0 -13 6 -29 11 -23 8 -35 6 -61 -9
-20 -12 -30 -25 -26 -34 3 -8 2 -17 -3 -19 -4 -3 -7 -22 -5 -43 1 -21 -3 -44
-8 -50 -7 -9 -7 -13 0 -13 6 0 9 -7 6 -15 -4 -8 -1 -15 5 -15 6 0 11 -16 11
-35 0 -43 32 -75 75 -75 48 0 68 29 66 95 -1 39 2 55 11 55 33 0 88 22 88 35
0 8 9 15 20 15 11 0 20 4 20 9 0 7 30 20 43 19 1 0 27 14 57 30 l56 31 25 -42
c15 -25 34 -43 45 -44 10 -1 34 -2 52 -4 38 -2 69 22 76 61 2 14 5 27 5 29 1
2 8 -2 17 -10 14 -11 14 -13 0 -21 -9 -5 -16 -15 -16 -22 0 -8 -7 -19 -15 -26
-8 -7 -15 -29 -15 -49 0 -20 4 -31 8 -24 4 6 25 13 47 15 34 2 39 6 37 23 -2
11 -3 28 -3 37 0 10 -4 20 -10 23 -5 4 -9 14 -8 23 0 13 3 12 11 -5 6 -13 14
-23 18 -23 13 0 8 -76 -7 -92 -10 -11 -12 -18 -5 -18 7 0 12 -9 12 -20 0 -11
-5 -20 -11 -20 -5 0 -8 4 -4 10 9 15 -18 50 -40 50 -27 0 -44 -29 -51 -90 -8
-62 0 -96 25 -110 21 -11 54 -3 45 11 -3 5 -1 9 5 9 5 0 11 12 13 28 2 21 8
27 28 27 21 0 25 -5 26 -33 1 -17 7 -39 14 -47 7 -9 11 -18 8 -20 -11 -11 -30
26 -31 60 -1 27 -5 35 -16 33 -9 -2 -18 -14 -19 -28 -7 -49 -61 -77 -84 -45
-4 6 -8 -43 -8 -109 l0 -118 -42 5 c-185 24 -399 102 -578 210 -64 39 -219
157 -219 167 0 3 24 25 54 49 30 25 86 74 124 110 38 36 91 84 118 106 26 22
49 49 51 60 13 86 72 152 152 171 19 4 38 9 43 10 4 1 14 2 22 3 9 1 15 11 15
26 0 14 -3 24 -7 23 -5 -1 -20 6 -35 16 -40 26 -36 51 13 70 22 9 37 21 34 26
-3 6 -1 10 4 10 6 0 11 -3 11 -7z m1275 -81 c5 -4 12 -7 15 -7 3 -1 28 -7 56
-14 42 -10 53 -17 56 -36 5 -21 3 -22 -20 -14 -33 13 -52 5 -52 -21 0 -11 -4
-20 -9 -20 -5 0 -8 12 -5 26 6 30 -8 49 -49 70 -42 22 -67 25 -67 8 0 -8 6
-13 13 -11 7 1 13 -11 15 -30 2 -25 -1 -33 -12 -33 -9 0 -16 6 -16 13 0 9 -2
9 -8 0 -11 -18 -100 -13 -105 6 -6 23 2 41 18 41 8 0 19 8 24 18 10 16 10 16
11 -1 0 -11 -9 -21 -20 -24 -11 -3 -20 -14 -20 -25 0 -16 3 -17 20 -8 14 7 20
7 20 0 0 -14 33 -13 48 2 10 10 15 10 22 -2 8 -12 10 -11 10 6 0 12 -7 24 -15
28 -8 3 -15 15 -15 27 0 19 4 21 37 14 21 -4 42 -10 48 -13z m-2438 -58 c-8
-89 -15 -92 -14 -5 1 39 6 71 11 71 5 0 6 -30 3 -66z m66 41 c4 -8 3 -16 -1
-19 -4 -3 -9 4 -9 15 -2 23 3 25 10 4z m1984 -12 c24 -16 23 -48 -2 -67 -13
-9 -2 -23 77 -92 51 -45 109 -95 128 -112 78 -69 110 -96 212 -185 59 -50 109
-97 111 -103 5 -10 -107 -103 -193 -160 -45 -30 -217 -121 -235 -124 -14 -3
-33 -10 -74 -27 -31 -12 -127 -39 -176 -49 -11 -2 -31 -7 -45 -9 -59 -13 -110
-16 -111 -9 -1 5 -2 108 -3 229 -1 121 -5 225 -9 232 -4 7 0 14 13 18 11 3 20
9 20 13 0 4 7 15 15 26 13 17 15 17 52 -10 21 -16 40 -31 43 -34 3 -3 25 -21
50 -40 24 -19 55 -45 69 -57 13 -13 29 -24 35 -25 6 0 16 -2 21 -3 6 -2 13 -3
17 -4 4 0 2 -16 -4 -33 -12 -40 -11 -87 3 -105 6 -7 26 -15 45 -19 38 -7 74
15 74 45 0 9 9 23 20 31 14 10 17 17 8 27 -8 10 -6 13 8 14 11 0 14 3 6 6 -6
2 -10 9 -6 14 3 5 7 38 9 74 3 64 3 64 -30 80 -44 20 -79 5 -102 -46 -19 -42
-33 -50 -33 -20 0 10 -9 30 -20 44 -11 14 -17 32 -14 41 3 9 2 16 -2 16 -5 0
-15 15 -23 33 -8 17 -17 34 -20 37 -4 3 -19 30 -35 60 -16 30 -34 58 -40 62
-6 4 -9 8 -6 9 3 0 12 2 21 4 20 4 68 -40 92 -82 10 -18 18 -35 17 -38 -3 -45
1 -55 24 -55 50 0 71 74 42 144 -19 45 -61 83 -116 103 -53 20 -59 26 -52 59
4 21 10 24 48 25 53 2 56 2 72 12 18 12 -2 43 -33 51 -14 4 -25 11 -25 16 0
11 25 3 57 -17z m-1617 -3 c0 -5 -4 -10 -10 -10 -5 0 -10 5 -10 10 0 6 5 10
10 10 6 0 10 -4 10 -10z m-368 -78 c-2 -30 1 -52 7 -56 6 -4 11 -2 11 4 0 6 5
8 11 4 15 -9 -9 -24 -28 -17 -9 3 -13 24 -13 65 0 32 4 57 8 54 5 -3 7 -27 4
-54z m2613 36 c7 -7 6 -9 -1 -5 -16 9 -31 -12 -37 -50 -6 -38 -14 -53 -29 -53
-6 0 -8 12 -4 33 4 17 6 47 6 66 -1 32 1 33 27 26 15 -3 33 -11 38 -17z m65
-13 c8 -2 42 -10 75 -19 33 -9 70 -19 82 -22 12 -2 35 -9 50 -16 16 -6 32 -10
36 -9 5 1 6 -3 2 -9 -4 -7 -12 -7 -25 0 -10 5 -25 10 -32 10 -7 -1 -37 -43
-67 -95 l-55 -95 -25 22 c-14 13 -41 36 -59 53 -18 16 -36 29 -40 28 -9 -2 -5
19 18 85 16 49 16 55 1 70 -15 15 -14 15 4 8 11 -4 27 -9 35 -11z m-183 -35
c-1 -11 -7 -20 -14 -20 -11 0 -11 5 -3 20 6 11 13 20 15 20 2 0 3 -9 2 -20z
m-82 -29 c-3 -12 -10 -21 -15 -21 -5 0 -4 11 2 25 13 29 23 26 13 -4z m-2495
9 c8 -5 11 -12 7 -16 -4 -4 -13 -2 -19 4 -13 13 -47 16 -49 5 -7 -47 -6 -63 4
-64 7 -1 23 -4 37 -6 14 -3 55 -7 91 -10 63 -4 67 -3 72 19 4 12 2 27 -3 32
-16 16 -11 30 5 16 19 -16 19 -54 0 -70 -16 -13 -150 -9 -202 6 -23 6 -31 42
-17 78 7 18 50 21 74 6z m2570 -19 c0 -6 -4 -13 -10 -16 -5 -3 -10 1 -10 9 0
9 5 16 10 16 6 0 10 -4 10 -9z m-80 -41 c0 -13 7 -20 20 -20 11 0 20 -4 20 -9
0 -4 -11 -6 -24 -4 -16 3 -26 13 -29 29 -2 13 0 24 4 24 5 0 9 -9 9 -20z m515
-10 c-2 -4 -7 -40 -10 -81 -4 -41 -11 -78 -17 -84 -6 -7 -7 4 -2 29 9 51 11
71 13 126 1 32 4 41 10 30 6 -8 8 -17 6 -20z m-330 -22 c3 -3 -26 -4 -64 -4
-38 1 -67 4 -65 7 4 7 122 4 129 -3z m-1445 -88 c0 -5 7 -10 16 -10 31 0 -3
-25 -93 -70 -49 -23 -100 -51 -115 -61 -53 -38 -52 -17 2 34 30 29 75 78 99
110 l44 58 24 -25 c13 -14 23 -30 23 -36z m1819 8 c-1 -18 2 -41 6 -51 6 -14
10 -15 23 -5 13 11 14 10 10 -2 -5 -16 -39 -21 -37 -6 0 5 -3 12 -9 15 -9 6
-5 81 5 81 2 0 4 -15 2 -32z m-1102 -69 c18 -35 33 -70 33 -76 0 -7 4 -13 9
-13 11 0 61 -76 61 -92 0 -8 -3 -9 -8 -3 -4 6 -25 23 -47 40 -22 16 -46 35
-53 42 -7 7 -33 27 -57 44 -25 18 -45 36 -45 41 0 4 -10 8 -22 9 -22 0 -22 1
-4 12 11 7 33 24 50 39 17 15 35 26 40 25 6 -2 25 -32 43 -68z m1011 11 c5
-13 3 -13 -12 -1 -24 20 -48 -4 -35 -36 8 -23 15 -25 82 -25 20 0 37 -3 37 -7
0 -9 -76 -7 -107 3 -21 7 -32 36 -25 67 4 21 53 20 60 -1z m164 -18 c7 -26 -9
-62 -27 -62 -12 0 -11 4 5 20 16 16 18 25 10 45 -6 15 -6 24 -1 21 5 -3 11
-14 13 -24z m-1441 -41 c-11 -20 -5 -30 29 -55 l25 -18 -25 7 c-34 10 -39 15
-45 58 -5 30 -4 36 9 31 11 -4 13 -11 7 -23z m-31 8 c0 -6 -6 -9 -14 -6 -8 3
-18 -4 -24 -17 -6 -13 -20 -26 -31 -29 -27 -7 -28 10 -2 18 11 3 23 15 26 26
7 20 45 27 45 8z m1420 -19 c0 -5 -8 -10 -17 -10 -15 0 -16 2 -3 10 19 12 20
12 20 0z m-1495 -60 c-3 -5 -11 -10 -16 -10 -6 0 -7 5 -4 10 3 6 11 10 16 10
6 0 7 -4 4 -10z m-5 -30 c0 -5 13 -10 30 -10 17 0 37 -9 49 -21 17 -18 19 -31
14 -88 -3 -40 -12 -76 -22 -91 -19 -26 -51 -39 -51 -21 0 6 5 10 11 9 38 -9
72 139 42 181 -24 35 -73 21 -73 -21 0 -10 -4 -18 -10 -18 -13 0 -13 47 0 55
8 5 7 11 -1 21 -8 10 -8 14 0 14 6 0 11 -4 11 -10z m-45 -89 c3 -5 1 -12 -4
-15 -5 -3 -11 1 -15 9 -6 16 9 21 19 6z m45 -5 c0 -3 -4 -8 -10 -11 -5 -3 -10
-1 -10 4 0 6 5 11 10 11 6 0 10 -2 10 -4z"/>
<path d="M5518 5548 c-15 -18 -63 -68 -105 -113 -128 -132 -121 -116 -71 -163
l42 -40 54 58 54 59 25 -25 26 -26 25 26 26 25 -23 25 c-18 19 -21 28 -12 44
17 31 33 32 64 4 l27 -26 27 27 27 27 -69 65 c-39 36 -74 65 -80 65 -5 0 -22
-15 -37 -32z"/>
<path d="M5730 5375 c-6 -8 -9 -18 -6 -24 3 -5 -15 -26 -41 -47 -25 -22 -51
-44 -57 -49 -59 -54 -101 -84 -106 -75 -4 7 -15 4 -30 -8 l-23 -19 38 -47 c22
-25 42 -46 45 -46 3 0 44 32 90 71 47 39 96 80 110 92 14 11 39 33 57 48 l32
27 -36 46 c-38 49 -53 55 -73 31z"/>
<path d="M2010 3175 c-47 -29 -90 -59 -97 -64 -7 -6 -14 -11 -17 -11 -4 0 -87
-52 -105 -66 -7 -6 58 -134 68 -134 5 0 21 4 36 10 14 5 36 12 48 14 12 3 37
9 55 15 42 13 41 8 -5 -20 -21 -13 -45 -29 -53 -36 -8 -6 -26 -20 -38 -30
l-24 -19 31 -66 30 -66 78 23 c204 61 274 83 280 89 4 4 -4 28 -18 55 l-24 49
-80 -25 c-44 -13 -92 -28 -107 -33 -16 -5 -28 -7 -28 -6 0 2 43 28 95 57 52
30 95 57 95 61 0 4 -10 30 -22 58 -18 40 -25 49 -42 45 -36 -7 -120 -32 -150
-44 -16 -6 -31 -10 -33 -8 -4 5 29 27 94 63 87 48 83 43 60 97 -11 26 -26 47
-31 47 -6 0 -49 -25 -96 -55z"/>
<path d="M5881 3138 c-5 -13 -23 -53 -40 -90 l-30 -68 46 -20 c25 -11 47 -20
50 -20 2 0 23 -9 46 -19 53 -24 115 -50 125 -52 4 0 24 -10 44 -20 20 -10 39
-15 42 -10 7 11 76 172 76 177 0 9 -57 32 -66 26 -5 -4 -16 -21 -24 -39 l-15
-31 -37 15 c-37 15 -37 15 -22 44 8 16 12 34 9 38 -8 14 -65 31 -65 20 0 -5
-7 -21 -16 -34 -15 -23 -18 -24 -44 -10 -28 15 -29 16 -14 50 14 34 14 35 -15
50 -39 19 -40 19 -50 -7z"/>
<path d="M5762 2853 c-58 -28 -105 -115 -95 -177 5 -33 15 -43 104 -102 148
-99 198 -97 260 10 45 80 37 128 -31 176 l-29 21 -28 -43 c-15 -24 -32 -46
-36 -49 -5 -4 7 -16 26 -28 39 -24 54 -49 33 -57 -19 -7 -224 128 -219 144 6
16 38 16 55 -1 38 -39 51 -37 80 10 16 25 27 51 25 58 -5 12 -53 37 -92 49
-11 3 -35 -2 -53 -11z"/>
<path d="M2234 2680 c-60 -44 -113 -83 -119 -88 -5 -4 -24 -18 -42 -30 l-32
-23 57 -79 c31 -44 62 -79 67 -79 6 0 21 8 34 18 l24 18 -21 31 c-29 39 -28
44 10 66 l31 19 19 -26 c15 -21 23 -25 36 -17 46 26 46 26 23 58 l-21 30 29
21 29 21 22 -30 c21 -30 22 -30 51 -13 34 20 36 32 12 59 -10 10 -31 38 -47
61 -15 24 -34 47 -40 52 -9 7 -44 -13 -122 -69z"/>
<path d="M5492 2516 c-74 -81 -76 -66 15 -176 7 -8 42 -53 79 -100 36 -47 70
-86 75 -88 5 -2 27 15 48 37 l39 41 -20 25 c-19 25 -19 55 1 55 5 0 19 -9 32
-19 l24 -19 38 41 c20 23 37 44 37 48 0 3 -28 24 -62 45 -35 22 -85 54 -111
72 -27 17 -53 32 -58 32 -5 0 -9 5 -9 10 0 6 -5 10 -11 10 -6 0 -23 9 -39 20
l-27 20 -51 -54z m178 -163 c1 -36 -29 -19 -80 47 l-35 44 57 -39 c32 -22 57
-45 58 -52z"/>
<path d="M2618 2354 c-23 -7 -167 -182 -174 -211 -19 -72 78 -173 165 -173 30
0 101 53 101 75 -1 5 -20 25 -43 43 l-42 32 -27 -30 c-29 -32 -58 -40 -58 -16
0 15 69 106 128 168 32 33 37 36 47 21 11 -14 7 -23 -21 -52 l-35 -36 43 -37
c24 -21 46 -38 50 -38 5 0 22 19 39 43 24 33 30 49 25 76 -14 87 -118 158
-198 135z"/>
<path d="M5264 2301 c-39 -31 -72 -59 -75 -62 -3 -6 22 -39 146 -197 5 -7 15
-18 20 -25 6 -7 21 -27 34 -45 23 -33 23 -33 50 -16 14 10 51 38 82 63 l57 45
-21 28 c-25 34 -28 34 -65 3 l-29 -24 -21 27 c-28 33 -27 37 2 63 l25 22 -21
28 -21 28 -29 -20 c-28 -20 -30 -20 -49 -4 -26 24 -24 41 6 61 31 20 31 24 3
56 l-23 26 -71 -57z"/>
<path d="M5045 2148 c-16 -6 -32 -14 -35 -17 -3 -3 -30 -19 -60 -35 -30 -16
-57 -30 -58 -32 -4 -3 29 -65 121 -226 l61 -107 48 26 c26 14 48 30 48 35 0 5
-15 36 -32 70 -32 59 -32 61 -13 72 38 22 74 64 71 82 -10 49 -51 114 -82 129
-18 8 -34 15 -36 14 -1 0 -16 -5 -33 -11z m37 -114 c16 -27 16 -33 4 -43 -11
-9 -18 -5 -35 22 -12 19 -21 40 -21 46 0 23 34 6 52 -25z"/>
<path d="M2925 2138 c-32 -19 -39 -29 -93 -129 -54 -99 -60 -128 -38 -168 15
-26 91 -81 115 -82 9 0 23 -2 32 -4 42 -8 74 22 132 124 80 141 78 185 -12
239 -51 30 -105 39 -136 20z m105 -79 c0 -9 -52 -110 -98 -191 -17 -29 -38
-42 -46 -29 -10 16 111 231 130 231 8 0 14 -5 14 -11z"/>
<path d="M3229 1973 c-7 -21 -14 -40 -14 -43 -2 -10 -66 -215 -72 -230 -4 -8
-7 -17 -7 -20 -1 -3 -5 -10 -8 -16 -7 -11 61 -44 88 -44 6 0 25 47 43 105 18
58 34 105 37 105 2 0 2 -10 -1 -22 -6 -32 -14 -83 -21 -150 l-7 -57 34 -9 34
-9 52 101 c29 56 52 98 52 95 1 -4 -12 -47 -29 -97 -16 -50 -30 -98 -30 -106
0 -12 87 -43 95 -34 2 3 92 284 105 329 8 26 5 28 -57 49 -35 12 -70 19 -78
17 -13 -6 -70 -115 -66 -130 1 -5 -3 -6 -9 -2 -6 3 -8 10 -6 14 5 7 18 89 20
125 1 14 -12 23 -49 36 -100 34 -92 35 -106 -7z"/>
<path d="M4584 1938 c-3 -5 -9 -6 -13 -4 -4 3 -13 1 -20 -3 -11 -7 -9 -23 7
-85 11 -42 18 -76 17 -76 -2 0 -24 32 -51 70 -26 39 -49 70 -51 70 -2 0 -25
-5 -49 -11 -46 -12 -46 -12 -39 -48 4 -20 8 -40 9 -46 1 -5 5 -15 9 -21 4 -7
9 -29 13 -50 3 -20 10 -48 15 -62 5 -14 7 -27 4 -30 -2 -3 -1 -10 4 -16 5 -6
11 -24 14 -41 8 -47 18 -67 33 -61 7 3 28 8 47 11 l35 7 -14 44 c-7 24 -11 44
-9 44 2 0 -3 16 -11 35 -8 19 -12 35 -9 35 3 0 26 -32 52 -71 42 -64 49 -70
72 -63 14 4 34 6 43 6 10 0 21 4 24 10 4 6 -13 91 -37 189 -41 170 -44 178
-67 176 -13 -1 -26 -5 -28 -9z"/>
<path d="M3676 1878 c-3 -7 -8 -38 -11 -68 -4 -30 -8 -62 -10 -70 -8 -47 -27
-221 -24 -224 2 -2 24 -6 49 -9 25 -3 68 -9 96 -12 55 -8 61 -3 60 44 -1 13
-8 25 -16 27 -8 1 -26 5 -40 7 -14 3 -24 10 -22 17 2 7 4 25 5 40 2 25 5 26
42 22 40 -3 40 -3 40 32 1 36 -3 39 -48 39 -15 0 -17 6 -15 36 3 35 4 36 41
33 20 -2 37 -2 37 0 1 2 3 20 6 41 5 35 4 37 -23 38 -30 2 -40 3 -115 14 -36
5 -49 3 -52 -7z"/>
<path d="M4255 1874 c-5 -2 -28 -5 -50 -7 l-40 -3 1 -45 c2 -46 13 -173 19
-224 2 -16 5 -47 7 -68 l2 -38 60 5 c34 2 62 5 63 5 1 1 0 7 -2 14 -2 6 -7 41
-10 77 -22 268 -26 292 -50 284z"/>
</g>
</svg>
